<?xml version="1.0" encoding="UTF-8"?>
<svg xmlns="http://www.w3.org/2000/svg" xmlns:xlink="http://www.w3.org/1999/xlink" width="576" height="42" viewBox="0 750 576 42" version="1.2">
<defs>
<clipPath id="clip1">
  <path d="M 42 750.878906 L 78 750.878906 L 78 792 L 42 792 Z M 42 750.878906 "/>
</clipPath>
<clipPath id="clip2">
  <path d="M 94 750.878906 L 126 750.878906 L 126 792 L 94 792 Z M 94 750.878906 "/>
</clipPath>
</defs>
<g id="surface1">
<path style=" stroke:none;fill-rule:nonzero;fill:rgb(11.573792%,20.820618%,36.462402%);fill-opacity:1;" d="M 474.515625 763.375 L 469.71875 775.648438 L 479.367188 775.648438 Z M 471.167969 751.886719 L 478.363281 751.886719 L 495.546875 791.382812 L 485.730469 791.382812 L 482.324219 783.011719 L 466.984375 783.011719 L 463.691406 791.382812 L 454.097656 791.382812 L 471.167969 751.886719 "/>
<path style=" stroke:none;fill-rule:nonzero;fill:rgb(11.573792%,20.820618%,36.462402%);fill-opacity:1;" d="M 429.714844 784.019531 L 437.523438 784.019531 C 438.195312 784.019531 438.871094 783.945312 439.5625 783.796875 C 440.25 783.648438 440.871094 783.386719 441.429688 783.015625 C 441.988281 782.640625 442.441406 782.160156 442.796875 781.5625 C 443.148438 780.96875 443.328125 780.242188 443.328125 779.386719 C 443.328125 778.457031 443.097656 777.707031 442.632812 777.128906 C 442.164062 776.550781 441.578125 776.117188 440.871094 775.816406 C 440.164062 775.519531 439.402344 775.316406 438.585938 775.203125 C 437.769531 775.09375 437.003906 775.035156 436.296875 775.035156 L 429.714844 775.035156 Z M 429.714844 767.671875 L 436.019531 767.671875 C 436.6875 767.671875 437.347656 767.597656 438 767.449219 C 438.648438 767.300781 439.234375 767.058594 439.757812 766.722656 C 440.277344 766.390625 440.695312 765.941406 441.011719 765.386719 C 441.328125 764.828125 441.484375 764.15625 441.484375 763.378906 C 441.484375 762.558594 441.308594 761.882812 440.957031 761.339844 C 440.601562 760.800781 440.148438 760.382812 439.589844 760.085938 C 439.03125 759.789062 438.398438 759.574219 437.691406 759.445312 C 436.984375 759.3125 436.296875 759.246094 435.628906 759.246094 L 429.714844 759.246094 Z M 421.011719 751.886719 L 435.738281 751.886719 C 437.449219 751.886719 439.171875 752.003906 440.902344 752.246094 C 442.632812 752.488281 444.183594 752.972656 445.558594 753.699219 C 446.933594 754.421875 448.050781 755.4375 448.90625 756.738281 C 449.761719 758.039062 450.1875 759.769531 450.1875 761.925781 C 450.1875 764.15625 449.566406 766.007812 448.320312 767.476562 C 447.074219 768.949219 445.429688 769.996094 443.382812 770.628906 L 443.382812 770.742188 C 444.683594 770.925781 445.867188 771.289062 446.925781 771.828125 C 447.984375 772.367188 448.894531 773.054688 449.660156 773.890625 C 450.421875 774.730469 451.007812 775.707031 451.417969 776.820312 C 451.824219 777.9375 452.03125 779.128906 452.03125 780.394531 C 452.03125 782.476562 451.585938 784.214844 450.691406 785.609375 C 449.800781 787.003906 448.644531 788.128906 447.230469 788.984375 C 445.820312 789.839844 444.230469 790.453125 442.464844 790.824219 C 440.695312 791.195312 438.9375 791.382812 437.191406 791.382812 L 421.011719 791.382812 L 421.011719 751.886719 "/>
<path style=" stroke:none;fill-rule:nonzero;fill:rgb(11.573792%,20.820618%,36.462402%);fill-opacity:1;" d="M 508.394531 768.230469 L 513.527344 768.230469 C 514.308594 768.230469 515.136719 768.203125 516.011719 768.144531 C 516.882812 768.089844 517.675781 767.921875 518.382812 767.644531 C 519.085938 767.363281 519.671875 766.929688 520.140625 766.332031 C 520.605469 765.738281 520.835938 764.902344 520.835938 763.820312 C 520.835938 762.816406 520.632812 762.019531 520.222656 761.421875 C 519.8125 760.828125 519.292969 760.371094 518.660156 760.054688 C 518.027344 759.742188 517.304688 759.527344 516.484375 759.414062 C 515.664062 759.304688 514.867188 759.246094 514.085938 759.246094 L 508.394531 759.246094 Z M 499.691406 751.882812 L 514.980469 751.882812 C 516.984375 751.882812 518.890625 752.078125 520.695312 752.46875 C 522.5 752.859375 524.078125 753.511719 525.4375 754.421875 C 526.796875 755.335938 527.875 756.5625 528.675781 758.105469 C 529.472656 759.648438 529.875 761.570312 529.875 763.878906 C 529.875 766.667969 529.148438 769.039062 527.699219 770.988281 C 526.246094 772.941406 524.128906 774.179688 521.339844 774.699219 L 531.382812 791.382812 L 520.945312 791.382812 L 512.691406 775.59375 L 508.394531 775.59375 L 508.394531 791.382812 L 499.691406 791.382812 L 499.691406 751.882812 "/>
<path style=" stroke:none;fill-rule:nonzero;fill:rgb(11.573792%,20.820618%,36.462402%);fill-opacity:1;" d="M 356.957031 763.375 L 352.160156 775.648438 L 361.8125 775.648438 Z M 353.609375 751.886719 L 360.808594 751.886719 L 377.988281 791.382812 L 368.171875 791.382812 L 364.769531 783.011719 L 349.425781 783.011719 L 346.136719 791.382812 L 336.539062 791.382812 L 353.609375 751.886719 "/>
<path style=" stroke:none;fill-rule:nonzero;fill:rgb(11.573792%,20.820618%,36.462402%);fill-opacity:1;" d="M 554.96875 763.375 L 550.171875 775.648438 L 559.820312 775.648438 Z M 551.621094 751.886719 L 558.816406 751.886719 L 576 791.382812 L 566.183594 791.382812 L 562.777344 783.011719 L 547.4375 783.011719 L 544.144531 791.382812 L 534.550781 791.382812 L 551.621094 751.886719 "/>
<path style=" stroke:none;fill-rule:nonzero;fill:rgb(11.573792%,20.820618%,36.462402%);fill-opacity:1;" d="M 312.15625 784.011719 L 319.96875 784.011719 C 320.636719 784.011719 321.316406 783.9375 322.003906 783.789062 C 322.691406 783.640625 323.316406 783.378906 323.875 783.007812 C 324.433594 782.636719 324.886719 782.152344 325.238281 781.558594 C 325.59375 780.960938 325.769531 780.238281 325.769531 779.382812 C 325.769531 778.453125 325.539062 777.699219 325.074219 777.121094 C 324.605469 776.546875 324.019531 776.109375 323.316406 775.808594 C 322.609375 775.511719 321.847656 775.308594 321.027344 775.195312 C 320.210938 775.085938 319.445312 775.03125 318.738281 775.03125 L 312.15625 775.03125 Z M 312.15625 767.667969 L 318.460938 767.667969 C 319.132812 767.667969 319.789062 767.589844 320.441406 767.441406 C 321.09375 767.292969 321.679688 767.050781 322.199219 766.71875 C 322.722656 766.382812 323.140625 765.9375 323.453125 765.378906 C 323.769531 764.820312 323.929688 764.152344 323.929688 763.371094 C 323.929688 762.550781 323.753906 761.875 323.398438 761.332031 C 323.046875 760.796875 322.589844 760.378906 322.03125 760.078125 C 321.476562 759.78125 320.839844 759.566406 320.136719 759.4375 C 319.429688 759.304688 318.738281 759.242188 318.070312 759.242188 L 312.15625 759.242188 Z M 303.453125 751.878906 L 318.183594 751.878906 C 319.894531 751.878906 321.613281 752 323.34375 752.238281 C 325.074219 752.480469 326.625 752.964844 328.003906 753.691406 C 329.378906 754.414062 330.492188 755.429688 331.351562 756.730469 C 332.203125 758.035156 332.632812 759.765625 332.632812 761.917969 C 332.632812 764.152344 332.007812 766 330.761719 767.46875 C 329.515625 768.941406 327.871094 769.992188 325.824219 770.621094 L 325.824219 770.734375 C 327.128906 770.921875 328.308594 771.285156 329.367188 771.824219 C 330.429688 772.359375 331.339844 773.050781 332.101562 773.886719 C 332.863281 774.722656 333.449219 775.699219 333.859375 776.816406 C 334.269531 777.929688 334.472656 779.121094 334.472656 780.386719 C 334.472656 782.46875 334.027344 784.207031 333.132812 785.601562 C 332.242188 786.996094 331.089844 788.121094 329.675781 788.976562 C 328.261719 789.832031 326.671875 790.445312 324.90625 790.816406 C 323.140625 791.191406 321.382812 791.375 319.632812 791.375 L 303.453125 791.375 L 303.453125 751.878906 "/>
<path style=" stroke:none;fill-rule:nonzero;fill:rgb(11.573792%,20.820618%,36.462402%);fill-opacity:1;" d="M 390.839844 768.222656 L 395.96875 768.222656 C 396.75 768.222656 397.578125 768.195312 398.453125 768.140625 C 399.324219 768.082031 400.117188 767.917969 400.824219 767.636719 C 401.527344 767.359375 402.117188 766.921875 402.582031 766.328125 C 403.046875 765.730469 403.277344 764.894531 403.277344 763.816406 C 403.277344 762.8125 403.074219 762.011719 402.664062 761.417969 C 402.253906 760.824219 401.734375 760.367188 401.101562 760.050781 C 400.46875 759.734375 399.746094 759.519531 398.925781 759.410156 C 398.109375 759.296875 397.308594 759.242188 396.527344 759.242188 L 390.839844 759.242188 Z M 382.136719 751.878906 L 397.421875 751.878906 C 399.429688 751.878906 401.335938 752.074219 403.140625 752.464844 C 404.941406 752.855469 406.523438 753.507812 407.882812 754.414062 C 409.238281 755.328125 410.316406 756.554688 411.117188 758.097656 C 411.914062 759.640625 412.316406 761.566406 412.316406 763.871094 C 412.316406 766.660156 411.589844 769.03125 410.140625 770.984375 C 408.691406 772.9375 406.570312 774.175781 403.78125 774.695312 L 413.824219 791.375 L 403.390625 791.375 L 395.132812 775.585938 L 390.839844 775.585938 L 390.839844 791.375 L 382.136719 791.375 L 382.136719 751.878906 "/>
<path style=" stroke:none;fill-rule:nonzero;fill:rgb(11.573792%,20.820618%,36.462402%);fill-opacity:1;" d="M 148.554688 763.375 L 143.757812 775.648438 L 153.40625 775.648438 Z M 145.207031 751.886719 L 152.402344 751.886719 L 169.585938 791.382812 L 159.765625 791.382812 L 156.363281 783.011719 L 141.023438 783.011719 L 137.730469 791.382812 L 128.136719 791.382812 L 145.207031 751.886719 "/>
<path style=" stroke:none;fill-rule:nonzero;fill:rgb(11.573792%,20.820618%,36.462402%);fill-opacity:1;" d="M 265.808594 763.375 L 261.011719 775.648438 L 270.664062 775.648438 Z M 262.464844 751.886719 L 269.660156 751.886719 L 286.84375 791.382812 L 277.023438 791.382812 L 273.621094 783.011719 L 258.277344 783.011719 L 254.988281 791.382812 L 245.390625 791.382812 L 262.464844 751.886719 "/>
<path style=" stroke:none;fill-rule:nonzero;fill:rgb(11.573792%,20.820618%,36.462402%);fill-opacity:1;" d="M 174.40625 751.878906 L 186.234375 751.878906 L 203.027344 779.324219 L 203.136719 779.324219 L 203.136719 751.878906 L 211.839844 751.878906 L 211.839844 791.375 L 200.460938 791.375 L 183.222656 763.257812 L 183.109375 763.257812 L 183.109375 791.375 L 174.40625 791.375 L 174.40625 751.878906 "/>
<path style=" stroke:none;fill-rule:nonzero;fill:rgb(11.573792%,20.820618%,36.462402%);fill-opacity:1;" d="M 228.816406 759.578125 L 217.914062 759.578125 L 217.914062 751.878906 L 249.15625 751.878906 L 249.15625 759.578125 L 237.519531 759.578125 L 237.519531 791.375 L 228.816406 791.375 L 228.816406 759.578125 "/>
<path style=" stroke:none;fill-rule:nonzero;fill:rgb(11.573792%,20.820618%,36.462402%);fill-opacity:1;" d="M 18.839844 792 C 9.664062 792 4.464844 786.628906 4.464844 776.894531 L 4.476562 755.6875 L 0 755.6875 L 0 751.886719 L 14.375 751.886719 L 14.375 755.6875 L 9.34375 755.6875 L 9.332031 776.335938 C 9.332031 784.726562 12.296875 787.972656 18.953125 787.972656 C 25.328125 787.972656 29.132812 785.398438 29.132812 775.609375 L 29.144531 755.6875 L 24.109375 755.6875 L 24.109375 751.886719 L 38.488281 751.886719 L 38.488281 755.6875 L 34.011719 755.6875 L 34 776.28125 C 34 786.011719 29.132812 792 18.839844 792 "/>
<g clip-path="url(#clip1)" clip-rule="nonzero">
<path style=" stroke:none;fill-rule:nonzero;fill:rgb(11.573792%,20.820618%,36.462402%);fill-opacity:1;" d="M 73.132812 778.238281 C 72.125 784.726562 67.59375 788.027344 61.050781 788.027344 C 52.433594 788.027344 47.289062 781.875 47.289062 771.691406 L 47.289062 771.246094 C 47.289062 761.175781 52.824219 754.742188 61.105469 754.742188 C 67.203125 754.742188 71.34375 757.316406 72.964844 763.972656 L 77.050781 763.972656 L 77.050781 751.886719 L 72.683594 751.886719 L 72.683594 756.253906 C 70.617188 752.5625 66.253906 750.882812 61.21875 750.882812 C 50.195312 750.882812 42.253906 759.441406 42.253906 771.300781 L 42.253906 771.75 C 42.253906 784.054688 49.355469 792 60.9375 792 C 69.734375 792 76.035156 787.609375 77.578125 778.699219 L 73.132812 778.238281 "/>
</g>
<g clip-path="url(#clip2)" clip-rule="nonzero">
<path style=" stroke:none;fill-rule:nonzero;fill:rgb(11.573792%,20.820618%,36.462402%);fill-opacity:1;" d="M 125.796875 779.230469 C 125.796875 786.75 119.433594 792 110.328125 792 C 103.027344 792 97.796875 789.546875 94.765625 784.707031 L 100.734375 779.597656 C 101.703125 780.976562 105.023438 784.976562 111.0625 784.976562 C 114.835938 784.976562 117.179688 783.339844 117.179688 780.699219 C 117.179688 777.363281 115.003906 776.621094 109.496094 775.078125 C 102.996094 773.253906 96.386719 770.449219 96.386719 763.21875 C 96.386719 755.953125 102.523438 750.878906 111.308594 750.878906 C 114.832031 750.878906 121.261719 751.703125 124.78125 757.191406 L 119.234375 762.023438 C 117.132812 759.25 114.214844 757.902344 110.328125 757.902344 C 106.421875 757.902344 105.003906 760.605469 105.003906 762.425781 C 105.003906 765.304688 108.847656 766.566406 113.488281 767.800781 C 119.441406 769.359375 125.796875 771.65625 125.796875 779.230469 "/>
</g>
</g>
</svg>
