<?xml version="1.0" encoding="UTF-8"?><svg id="Logo" xmlns="http://www.w3.org/2000/svg" viewBox="0 0 220.33 46.91"><defs><style>.cls-1{stroke-width:0px;}</style></defs><path class="cls-1" d="m9.93,6.77h6.96v6.96h-6.96s0-6.96,0-6.96Z"/><path class="cls-1" d="m28.99,0v9.78c0,.8.18,1.43.53,1.9.35.47.92.7,1.7.7s1.36-.23,1.74-.7.56-1.1.56-1.9V0h5.41v9.78c0,1.65-.34,3.06-1.03,4.23s-1.63,2.05-2.82,2.63c-1.19.59-2.52.88-3.99.88s-2.77-.29-3.91-.88c-1.14-.59-2.02-1.46-2.66-2.62-.64-1.16-.96-2.57-.96-4.24V0h5.43Z"/><path class="cls-1" d="m50.01,17.35l-3.26-6.22h-.02v6.22h-5.44V0h8.08C50.78,0,51.98.25,52.97.75s1.74,1.18,2.24,2.03.75,1.83.75,2.9c0,1.16-.32,2.19-.97,3.09s-1.57,1.54-2.78,1.94l3.77,6.64h-5.98,0Zm-3.28-9.85h2.16c.52,0,.91-.12,1.18-.36.26-.24.39-.61.39-1.12,0-.46-.13-.82-.4-1.08-.27-.26-.66-.39-1.16-.39h-2.16v2.94h0Z"/><path class="cls-1" d="m71.75,9.96c.58.76.87,1.64.87,2.63,0,1.52-.5,2.69-1.51,3.52-1,.83-2.45,1.24-4.32,1.24h-9.09V0h8.84C68.3,0,69.69.38,70.71,1.15c1.02.77,1.52,1.89,1.52,3.36,0,1.01-.27,1.87-.8,2.56-.53.69-1.24,1.16-2.12,1.38,1.04.25,1.86.75,2.44,1.51Zm-8.61-3.2h2.11c.49,0,.85-.1,1.09-.29.24-.2.36-.5.36-.91s-.12-.74-.36-.94c-.24-.2-.6-.31-1.09-.31h-2.11v2.45Zm3.56,5.94c.24-.19.36-.49.36-.92,0-.83-.48-1.25-1.45-1.25h-2.47v2.45h2.47c.49,0,.85-.09,1.09-.28Z"/><path class="cls-1" d="m85.58,14.73h-5.78l-.86,2.62h-5.71L79.58,0h6.27l6.32,17.35h-5.73s-.86-2.62-.86-2.62Zm-1.32-4.09l-1.57-4.83-1.57,4.83h3.14Z"/><path class="cls-1" d="m110.04,17.35h-5.44l-5.76-8.72v8.72h-5.44V0h5.44l5.76,8.87V0h5.44v17.35Z"/><path class="cls-1" d="m117.43,12.01c-.57-.51-.86-1.14-.86-1.91s.29-1.43.86-1.95c.57-.51,1.33-.77,2.28-.77s1.68.26,2.25.77.86,1.16.86,1.95-.29,1.41-.86,1.91c-.57.51-1.32.76-2.25.76s-1.71-.25-2.28-.76Z"/><path class="cls-1" d="m141.36,1.1c1.36.73,2.41,1.76,3.15,3.06.73,1.31,1.1,2.79,1.1,4.46s-.37,3.14-1.1,4.46c-.74,1.32-1.79,2.36-3.15,3.12s-2.95,1.14-4.77,1.14h-7.23V0h7.23c1.81,0,3.4.37,4.77,1.1Zm-2.34,10.39c.72-.67,1.08-1.62,1.08-2.87s-.36-2.2-1.08-2.87-1.69-1-2.92-1h-1.3v7.74h1.3c1.22,0,2.2-.33,2.92-1Z"/><path class="cls-1" d="m158.69,14.73h-5.78l-.86,2.62h-5.71l6.35-17.35h6.27l6.32,17.35h-5.73l-.86-2.62h0Zm-1.32-4.09l-1.57-4.83-1.57,4.83h3.14Z"/><path class="cls-1" d="m180.13,0v4.31h-4.61v13.03h-5.44V4.31h-4.56V0h14.61Z"/><path class="cls-1" d="m192.72,14.73h-5.78l-.86,2.62h-5.71l6.35-17.35h6.27l6.32,17.35h-5.73l-.86-2.62h0Zm-1.32-4.09l-1.57-4.83-1.57,4.83h3.14Z"/><path class="cls-1" d="m205.49,12.01c-.57-.51-.86-1.14-.86-1.91s.29-1.43.86-1.95c.57-.51,1.33-.77,2.28-.77s1.68.26,2.25.77.86,1.16.86,1.95-.29,1.41-.86,1.91c-.57.51-1.32.76-2.25.76s-1.71-.25-2.28-.76Z"/><path class="cls-1" d="m.86,41.41c-.57-.51-.86-1.14-.86-1.91s.29-1.43.86-1.95c.57-.51,1.33-.77,2.28-.77s1.68.26,2.25.77c.57.51.86,1.16.86,1.95s-.29,1.41-.86,1.91c-.57.51-1.32.76-2.25.76s-1.71-.25-2.28-.76Z"/><path class="cls-1" d="m21.51,46.75l-3.26-6.22h-.02v6.22h-5.44v-17.35h8.08c1.41,0,2.61.25,3.6.75.99.5,1.74,1.18,2.24,2.03s.75,1.83.75,2.9c0,1.16-.32,2.19-.97,3.09s-1.57,1.54-2.78,1.94l3.77,6.64h-5.98.01Zm-3.28-9.85h2.16c.52,0,.91-.12,1.18-.36.26-.24.39-.61.39-1.12,0-.46-.13-.82-.4-1.08-.27-.26-.66-.39-1.16-.39h-2.16v2.94h-.01Z"/><path class="cls-1" d="m34.64,33.74v2.13h5.39v4.09h-5.39v2.45h6.12v4.34h-11.56v-17.35h11.56v4.34s-6.12,0-6.12,0Z"/><path class="cls-1" d="m44.48,45.46c-1.35-.97-2.08-2.4-2.19-4.28h5.78c.08,1,.52,1.49,1.32,1.49.29,0,.54-.07.75-.21s.31-.36.31-.65c0-.41-.22-.74-.66-.99s-1.13-.54-2.06-.87c-1.11-.39-2.03-.78-2.76-1.15-.73-.38-1.35-.92-1.88-1.64s-.78-1.64-.76-2.77c0-1.13.29-2.09.87-2.88s1.37-1.39,2.38-1.8c1-.41,2.13-.61,3.39-.61,2.12,0,3.81.49,5.06,1.47,1.25.98,1.91,2.36,1.97,4.14h-5.86c-.02-.49-.14-.84-.37-1.05s-.51-.32-.83-.32c-.23,0-.42.08-.56.23-.15.16-.22.37-.22.65,0,.39.22.71.65.97.43.25,1.12.56,2.07.92,1.09.41,2,.8,2.71,1.18s1.33.9,1.85,1.57c.52.67.78,1.51.78,2.52s-.26,2.01-.78,2.85-1.28,1.5-2.28,1.97-2.18.71-3.55.71c-2.07,0-3.79-.49-5.13-1.46h0Z"/><path class="cls-1" d="m63.58,33.74v2.13h5.39v4.09h-5.39v2.45h6.12v4.34h-11.56v-17.35h11.56v4.34s-6.12,0-6.12,0Z"/><path class="cls-1" d="m82.88,44.12h-5.78l-.86,2.62h-5.71l6.35-17.35h6.27l6.32,17.35h-5.73s-.86-2.62-.86-2.62Zm-1.32-4.09l-1.57-4.83-1.57,4.83h3.14Z"/><path class="cls-1" d="m99.42,46.75l-3.26-6.22h-.02v6.22h-5.44v-17.35h8.08c1.41,0,2.61.25,3.6.75.99.5,1.74,1.18,2.24,2.03s.75,1.83.75,2.9c0,1.16-.32,2.19-.97,3.09s-1.57,1.54-2.78,1.94l3.77,6.64h-5.98.01Zm-3.28-9.85h2.16c.52,0,.91-.12,1.18-.36.26-.24.39-.61.39-1.12,0-.46-.13-.82-.4-1.08-.27-.26-.66-.39-1.16-.39h-2.16v2.94h0Z"/><path class="cls-1" d="m107.67,33.47c.69-1.34,1.69-2.38,2.98-3.12s2.81-1.12,4.56-1.12c1.5,0,2.85.28,4.03.85,1.18.56,2.15,1.36,2.89,2.39s1.24,2.23,1.48,3.6h-5.73c-.26-.57-.63-1.02-1.11-1.34s-1.03-.48-1.65-.48c-.92,0-1.64.34-2.17,1.03s-.8,1.61-.8,2.77.27,2.08.8,2.77c.53.69,1.25,1.03,2.17,1.03.62,0,1.17-.16,1.65-.48s.85-.76,1.11-1.33h5.73c-.25,1.37-.74,2.57-1.48,3.6s-1.71,1.83-2.89,2.39c-1.18.56-2.53.84-4.03.84-1.75,0-3.27-.37-4.56-1.11s-2.28-1.78-2.98-3.12c-.69-1.34-1.04-2.87-1.04-4.58s.35-3.24,1.04-4.58h0Z"/><path class="cls-1" d="m141.61,29.4v17.35h-5.44v-6.76h-5.17v6.76h-5.44v-17.35h5.44v6.25h5.17v-6.25s5.44,0,5.44,0Z"/><path class="cls-1" d="m149.01,41.41c-.57-.51-.86-1.14-.86-1.91s.29-1.43.86-1.95c.57-.51,1.33-.77,2.28-.77s1.68.26,2.25.77c.57.51.86,1.16.86,1.95s-.29,1.41-.86,1.91c-.57.51-1.32.76-2.25.76s-1.71-.25-2.28-.76Z"/><path class="cls-1" d="m166.38,42.63h5.24v4.12h-10.68v-17.35h5.44v13.23Z"/><path class="cls-1" d="m184.46,44.12h-5.78l-.86,2.62h-5.71l6.35-17.35h6.27l6.32,17.35h-5.73l-.86-2.62h0Zm-1.32-4.09l-1.57-4.83-1.57,4.83h3.14Z"/><path class="cls-1" d="m206.33,39.36c.58.76.87,1.64.87,2.63,0,1.52-.5,2.69-1.51,3.52-1,.83-2.45,1.24-4.32,1.24h-9.09v-17.35h8.84c1.76,0,3.15.38,4.17,1.15s1.52,1.89,1.52,3.36c0,1.01-.27,1.87-.8,2.56-.53.69-1.24,1.16-2.12,1.38,1.04.25,1.86.75,2.44,1.51Zm-8.61-3.2h2.11c.49,0,.85-.1,1.09-.29.24-.2.36-.5.36-.91s-.12-.74-.36-.94c-.24-.2-.6-.31-1.09-.31h-2.11v2.45Zm3.56,5.94c.24-.19.36-.49.36-.92,0-.83-.48-1.25-1.45-1.25h-2.47v2.45h2.47c.49,0,.85-.09,1.09-.28Z"/><path class="cls-1" d="m213.37,36.17h6.96v6.96h-6.96v-6.96Z"/></svg>